<?xml version="1.0" encoding="utf-8"?>
<!-- Generator: Adobe Illustrator 21.1.0, SVG Export Plug-In . SVG Version: 6.00 Build 0)  -->
<svg version="1.1" id="Layer_1" xmlns="http://www.w3.org/2000/svg" xmlns:xlink="http://www.w3.org/1999/xlink" x="0px" y="0px"
	 viewBox="0 0 1200 500" style="enable-background:new 0 0 1200 500;" xml:space="preserve">
<style type="text/css">
	.st0{fill:url(#SVGID_1_);}
	.st1{fill:#74AE47;}
	.st2{fill:#897460;}
	.st3{fill:#FFFFFF;}
	.st4{fill:#6B4F30;}
	.st5{fill:#FBA900;}
	.st6{fill:none;}
	.st7{font-family:'Impact';}
	.st8{font-size:14px;}
	.st9{font-family:'MyriadPro-Regular';}
	.st10{font-size:9px;}
	.st11{fill:#5C8930;}
	.st12{fill:#A0C75A;}
	.st13{fill:#64BEB5;}
	.st14{fill:#A3A7A8;}
</style>
<linearGradient id="SVGID_1_" gradientUnits="userSpaceOnUse" x1="0" y1="199.7683" x2="1200" y2="199.7683">
	<stop  offset="1.426282e-02" style="stop-color:#A3D4E5"/>
	<stop  offset="0.1437" style="stop-color:#C4E3EE"/>
	<stop  offset="0.2977" style="stop-color:#E4F2F7"/>
	<stop  offset="0.4268" style="stop-color:#F8FCFD"/>
	<stop  offset="0.5144" style="stop-color:#FFFFFF"/>
	<stop  offset="0.6067" style="stop-color:#F7FBFD"/>
	<stop  offset="0.7508" style="stop-color:#E1F1F6"/>
	<stop  offset="0.9278" style="stop-color:#BDE0EC"/>
	<stop  offset="1" style="stop-color:#ACD8E7"/>
</linearGradient>
<rect y="1" class="st0" width="1200" height="397.5"/>
<rect y="398.2" class="st1" width="1200" height="101.8"/>
<g>
	<g>
		<g>
			<g>
				<g>
					<polygon class="st2" points="456.5,189.1 451.7,181.3 590.6,99.3 595.4,107 					"/>
				</g>
				<g>
					<polygon class="st2" points="724.7,189.1 729.5,181.3 590.6,99.3 585.8,107 					"/>
				</g>
			</g>
			<g>
				<rect x="462.3" y="175" class="st2" width="9.3" height="114.7"/>
			</g>
			<g>
				<rect x="420.5" y="298.6" class="st2" width="9.3" height="80.8"/>
			</g>
			<g>
				<rect x="709.6" y="177.8" class="st2" width="9.3" height="38.8"/>
			</g>
			<g>
				<rect x="669.2" y="281.3" class="st2" width="9.3" height="98.1"/>
			</g>
			<g>
				<rect x="509.3" y="281.3" class="st2" width="9.3" height="98.1"/>
			</g>
			<g>
				<rect x="611.7" y="191" class="st2" width="9.3" height="95.7"/>
			</g>
			<g>
				<rect x="792.4" y="265.2" class="st2" width="9.3" height="118.7"/>
			</g>
			<g>
				<rect x="468.8" y="280.7" class="st2" width="328.2" height="9"/>
			</g>
			<g>
				<rect x="420.5" y="374.9" class="st2" width="381.1" height="9"/>
			</g>
			<g>
				<rect x="468.8" y="191" class="st2" width="243.6" height="9"/>
			</g>
			<polygon class="st2" points="813.2,270.4 718.9,214.6 718.9,225.2 808.4,278.1 			"/>
			<polygon class="st2" points="412.4,302.5 417.2,310.2 462.3,283.6 462.3,273 			"/>
			<polygon class="st2" points="462.3,273 462.3,283.6 471.5,278.1 471.5,267.5 			"/>
			<polygon class="st2" points="709.6,209.1 709.6,219.7 718.9,225.2 718.9,214.6 			"/>
			<polygon class="st2" points="462.3,289.7 451.3,289.7 462.3,283.6 			"/>
		</g>
	</g>
</g>
<g>
	<polygon class="st3" points="468.8,289.7 462.3,289.7 451.9,289.7 429.7,302.8 429.7,374.9 509.3,374.9 509.3,289.7 471.5,289.7 	
		"/>
	<rect x="518.6" y="289.7" class="st3" width="150.7" height="85.2"/>
	<rect x="471.5" y="200" class="st3" width="140.1" height="80.7"/>
	<polygon class="st3" points="620.9,191 709.6,191 709.6,180.2 590.6,109.8 471.5,180.2 471.5,191 611.7,191 	"/>
	<polygon class="st3" points="709.6,219.7 709.6,216.6 709.6,209.1 709.6,200 620.9,200 620.9,280.7 792.4,280.7 792.4,268.6 
		718.9,225.2 	"/>
	<rect x="678.5" y="289.7" class="st3" width="113.9" height="85.2"/>
	<path class="st2" d="M718.9,214.6v-29l5.8,3.4l4.8-7.7L590.6,99.3l0,0.1l0-0.1L462.4,175h-0.1v0.1l-10.6,6.3l4.8,7.7l5.8-3.4V273
		l-49.9,29.5l4.8,7.7l3.3-2v66.6v4.5v4.5h371.9h9.3v-9V274.1l6.8,4l4.8-7.7L718.9,214.6L718.9,214.6z M471.5,180.2l119-70.3
		l119,70.3V191h-88.7h-9.3H471.5V180.2z M471.5,200h140.1v80.7H471.5V200z M509.3,374.9h-79.6v-72.1l22.2-13.1h10.4h6.5h2.8h37.8
		V374.9z M669.2,374.9H518.6v-85.2h150.7V374.9z M792.4,374.9H678.5v-85.2h113.9V374.9z M792.4,280.7H620.9V200h88.7v9.1v7.4v3.1
		l9.3,5.5l73.5,43.4V280.7z"/>
</g>
<path class="st4" d="M812.4,398H407c-3.9,0-7.1-3.2-7.1-7.1l0,0c0-3.9,3.2-7.1,7.1-7.1h405.4c3.9,0,7.1,3.2,7.1,7.1l0,0
	C819.5,394.8,816.3,398,812.4,398z"/>
<path class="st5" d="M553.8,225.7c0-3.1-2-5.6-4.4-5.6h-5.8v-2.4h-2.2v-17.5h-1.6v17.5h-2.2v2.4h-5.8c-2.4,0-4.4,2.5-4.4,5.6h8.3
	c0.7,1.4,2.6,2.4,4.9,2.4c2.3,0,4.2-1,4.9-2.4H553.8z"/>
<g>
	<polygon class="st5" points="480,267.4 483,267.4 483,271.4 486,271.4 486,280.5 488.4,280.5 488.4,271.4 497.3,271.4 497.3,280.5 
		499.7,280.5 499.7,271.4 502.6,271.4 502.6,267.4 505.6,267.4 505.6,266.1 480,266.1 	"/>
	<polygon class="st5" points="573.9,266.1 573.9,267.4 576.8,267.4 576.8,271.4 579.8,271.4 579.8,280.5 582.2,280.5 582.2,271.4 
		591.1,271.4 591.1,280.5 593.5,280.5 593.5,271.4 596.4,271.4 596.4,267.4 599.4,267.4 599.4,266.1 	"/>
	<polygon class="st5" points="564.4,265 515.1,265 513.9,265 509.7,265 509.7,280.5 515.1,280.5 515.1,277.4 564.4,277.4 
		564.4,280.5 569.8,280.5 569.8,265 565.6,265 	"/>
	<path class="st5" d="M568,261.9h-2.4v-8.1c0-1.7-1.4-3.2-3.2-3.2H517c-1.7,0-3.2,1.4-3.2,3.2v8.1h-2.4c-1,0-1.7,0.8-1.7,1.7v1.5h60
		v-1.5C569.8,262.6,569,261.9,568,261.9z"/>
</g>
<g>
	<path class="st5" d="M611.6,142.1v5.1v6.7v2.6v7.4v2.6v7.4v2.6v6.6v5.1h1.3v2.9h4.2v-2.9h13.4v2.9h4.2v-2.9h1.3v-5.1v-6.6V174v-7.4
		v-2.6v-7.4v-2.6v-6.7v-5.1H611.6z M633.4,183.2h-5.5v-2.7v-1.4v-1.8h-1.9v1.8v1.4v2.7h-1v-4.7v-0.4v-0.9h-1.9v0.9v0.4v4.7h-8.6
		v-6.6h19.1V183.2z M633.4,174h-0.8v-2.7v-1.4V168h-1.9v1.8v1.4v2.7h-1.9v-4.7v-0.4V168h-1.9v0.9v0.4v4.7h-1.6v-1.8v-2.4V168h-1.9
		v0.8v0.9v2.4v1.8h-3.1h-5.9v-7.4h19.1V174z M633.4,163.9h-11l1.5-0.8l-1.3-2.4l0,0l-0.7-1.3l0,0l-0.9-1.6l-1.7,0.9l2.8,5.1h-2.8
		v-3.9v-0.4v-0.5v-0.4v-0.1V158h-1.9v0.9v0.4v0.5v0.4v3.9h-3.1v-7.4h19.1V163.9z M633.4,153.9h-1.2v-2.7v-1.4v-1.8h-1.9v1.8v1.4v2.7
		h-1.9v-4.7v-0.4v-0.9h-1.9v0.9v0.4v4.7h-12v-6.7h19.1V153.9z"/>
	<polygon class="st5" points="621.1,168.7 621.1,168.7 621,169 621,169 618.5,173 620.2,174 622.6,170 622.6,170 622.8,169.6 
		622.8,169.6 623.3,168.9 621.6,167.9 	"/>
	<path class="st5" d="M553,175.8h-8.5v-15c0-0.9-0.7-1.6-1.6-1.6h-1.2c-0.9,0-1.6,0.7-1.6,1.6v15v1.1v3.6v0.7v10.1h2.5v-6.6h11.1
		v6.6h2.5v-10.1v-0.7V179C556.2,177.2,554.7,175.8,553,175.8z M553.7,183.6h-11.1v-2.5h11.1V183.6z"/>
	<path class="st5" d="M572.3,167.4h8.7l-1.8,3.1h8.5l-1.8-3.1h8.7c0.5,0,0.9-0.4,0.9-0.9v-16c0-0.5-0.4-0.9-0.9-0.9h-22.4
		c-0.5,0-0.9,0.4-0.9,0.9v16C571.3,167,571.8,167.4,572.3,167.4z"/>
	<polygon class="st5" points="563.5,175.7 563.5,191.2 563.5,191.2 563.5,191.2 567.2,191.2 567.2,191.2 577.7,191.2 577.7,175.7 
		599.7,175.7 599.7,191.2 603.4,191.2 603.4,175.7 603.4,175.7 603.4,170.6 563.5,170.6 	"/>
</g>
<g>
	<path class="st5" d="M781.3,342.4h-1.2c-0.9,0-1.6,0.7-1.6,1.6v15.2H770c-1.8,0-3.2,1.4-3.2,3.2v1.5v0.7v10.3h2.5v-6.7h11.2v6.7
		h2.5v-10.3v-0.7v-3.6v-1.1V344C783,343.1,782.2,342.4,781.3,342.4z M780.5,367.1h-11.2v-2.5h11.2V367.1z"/>
	<path class="st5" d="M702.6,359.2H694V344c0-0.9-0.7-1.6-1.6-1.6h-1.2c-0.9,0-1.6,0.7-1.6,1.6v15.2v1.1v3.6v0.7v10.3h2.5v-6.7h11.2
		v6.7h2.5v-10.3v-0.7v-1.5C705.8,360.6,704.4,359.2,702.6,359.2z M703.3,367.1h-11.2v-2.5h11.2V367.1z"/>
	<path class="st5" d="M708.9,351.7v5.6v2.2c0,1.6,1.2,2.9,2.7,2.9c0.4,0,0.8-0.1,1.2-0.3v12.7h4.4v-13.1c0.1,0,0.1-0.1,0.2-0.1
		c0.5,0.5,1.2,0.9,1.9,0.9c0.7,0,1.4-0.3,1.9-0.9c0.5,0.5,1.2,0.9,1.9,0.9c0.7,0,1.4-0.3,1.9-0.9c0.5,0.5,1.2,0.9,1.9,0.9
		c0.7,0,1.4-0.3,1.9-0.9c0.5,0.5,1.2,0.9,1.9,0.9c0.7,0,1.4-0.3,1.9-0.9c0.5,0.5,1.2,0.9,1.9,0.9c0.7,0,1.4-0.3,1.9-0.9
		c0.5,0.5,1.2,0.9,1.9,0.9c0.7,0,1.4-0.3,1.9-0.9c0.5,0.5,1.2,0.9,1.9,0.9c0.7,0,1.4-0.3,1.9-0.9c0.5,0.5,1.2,0.9,1.9,0.9
		c0.7,0,1.4-0.3,1.9-0.9c0.5,0.5,1.2,0.9,1.9,0.9c0.7,0,1.4-0.3,1.9-0.9c0.5,0.5,1.2,0.9,1.9,0.9c0.7,0,1.4-0.3,1.9-0.9
		c0,0.1,0.1,0.1,0.2,0.1v13.1h4.4v-12.7c0.4,0.2,0.8,0.3,1.2,0.3c1.5,0,2.7-1.3,2.7-2.9v-2.2v-5.6v-0.2h-54.7V351.7z"/>
	<path class="st5" d="M731.5,318.2c0.3,1.8,2.3,3.3,4.6,3.3c2.3,0,4.3-1.4,4.6-3.3c2.6,0.2,5,0.5,7.2,0.9c0.2-0.6,0.4-1.2,0.4-1.8
		c0-3.3-3.7-6.1-8.8-6.9v-1.6H737v-19.1h-1.8v19.1h-2.5v1.6c-5.1,0.9-8.8,3.6-8.8,6.9c0,0.6,0.1,1.2,0.4,1.8
		C726.5,318.7,729,318.4,731.5,318.2z"/>
</g>
<g>
	<polygon class="st5" points="482.9,316.9 482.9,316.9 482.3,316.9 482.3,316.9 467.9,316.9 467.9,372.7 469.2,372.7 469.2,374.8 
		474.5,374.8 474.5,372.7 482.3,372.7 482.3,372.7 482.9,372.7 482.9,372.7 491.2,372.7 491.2,374.8 496.5,374.8 496.5,372.7 
		497.8,372.7 497.8,316.9 	"/>
	<polygon class="st5" points="432.5,357.7 436.4,357.7 436.4,362.9 440.3,362.9 440.3,374.8 443.4,374.8 443.4,362.9 455.1,362.9 
		455.1,374.8 458.2,374.8 458.2,362.9 462.1,362.9 462.1,357.7 466,357.7 466,356 432.5,356 	"/>
	<path class="st5" d="M444.5,348.7h9.5c2,0,3.7-1.6,3.7-3.7v-14.7c0-2-1.6-3.7-3.7-3.7h-9.5c-2,0-3.7,1.6-3.7,3.7V345
		C440.8,347,442.5,348.7,444.5,348.7z"/>
</g>
<g>
	<polygon class="st5" points="606.2,361.2 606.2,364.6 606.2,374.8 610.8,374.8 610.8,364.6 645.2,364.6 645.2,374.8 649.8,374.8 
		649.8,364.6 649.8,361.2 	"/>
	<path class="st5" d="M607.8,355.1h40.4c0.6,0,1-0.4,1-1v-21.4c0-0.6-0.4-1-1-1h-40.4c-0.6,0-1,0.4-1,1v21.4
		C606.8,354.7,607.3,355.1,607.8,355.1z"/>
	<path class="st5" d="M595.9,355.7h-3.6v-7.5c0-1.5-1.2-2.7-2.7-2.7h-46.2c-1.5,0-2.7,1.2-2.7,2.7v7.5h-3.6c-1.2,0-2.2,1-2.2,2.2
		v5.7v0.4v7.1h2.4v1.3l0,0v2.3h5.7v-2.3H590v2.3h5.7v-2.3l0,0v-1.3h2.4v-7.1h0V358C598.1,356.7,597.1,355.7,595.9,355.7z"/>
	<path class="st5" d="M552.1,336.1H581c1,0,1.8-0.8,1.8-1.8v-20.8c0-1-0.8-1.8-1.8-1.8h-28.9c-1,0-1.8,0.8-1.8,1.8v20.8
		C550.2,335.3,551.1,336.1,552.1,336.1z"/>
</g>
<g>
	<path class="st5" d="M679.1,264.5h-34.2v-23c0-2.8,2.3-5,5-5c2.5,0,4.5,1.8,4.9,4.2c-2.1,0.7-3.6,2.6-3.6,4.8h0
		c-0.4,0-0.8,0.4-0.8,0.8s0.4,0.8,0.8,0.8H662c0.4,0,0.8-0.4,0.8-0.8c0-0.4-0.4-0.8-0.8-0.8h0c0-2.2-1.5-4.1-3.6-4.8
		c-0.4-4.3-4-7.6-8.4-7.6c-4.7,0-8.4,3.8-8.4,8.4v23h-3.4c-0.9,0-1.7,0.8-1.7,1.7c0,0.9,0.8,1.7,1.7,1.7h-0.2v5.6
		c0,3.8,3.1,6.9,6.9,6.9h27.5c3.8,0,6.9-3.1,6.9-6.9V268h-0.2c0.9,0,1.7-0.8,1.7-1.7l0,0C680.8,265.3,680.1,264.5,679.1,264.5z"/>
	<path class="st5" d="M742.8,254.9c0-0.7-0.6-1.3-1.3-1.3h-3.7c-0.7,0-1.3,0.6-1.3,1.3v9.6h-0.9c0.4,0,0.7-0.5,0.7-1.1
		c0-0.6-0.3-1.1-0.7-1.1h-14.1c-0.4,0-0.7,0.5-0.7,1.1c0,0.6,0.3,1.1,0.7,1.1h-0.2c0.5,3.6,3.2,6.6,6.7,7.6v0.8
		c0,3.6,2.3,6.6,5.6,7.6h8.5c0.2-0.1,0.3-0.2,0.4-0.4c0.4-0.5,0.4-1.2,0-1.6c-0.9-1.3-1.5-2.8-1.5-4.5c0-1.9,0.7-3.6,1.8-5v-1.6l0,0
		V254.9z"/>
	<rect x="689.6" y="257.7" class="st5" width="20.9" height="22.9"/>
</g>
<g>
	<rect x="828.5" y="276" class="st6" width="90.5" height="17.5"/>
	<text transform="matrix(1 0 0 1 828.5 287.0737)" class="st7 st8">Water Softener</text>
	<rect x="823" y="293.5" class="st6" width="116.5" height="34.5"/>
	<text transform="matrix(1 0 0 1 823 299.8901)"><tspan x="0" y="0" class="st9 st10">Don’t run out of water </tspan><tspan x="0" y="10.8" class="st9 st10">Softener Salt. Make sure to fill </tspan><tspan x="0" y="21.6" class="st9 st10">up often!</tspan></text>
</g>
<g>
	<rect x="742.5" y="85" class="st6" width="90.5" height="17.5"/>
	<text transform="matrix(1 0 0 1 742.5 96.0737)" class="st7 st8">Air Filters</text>
	<rect x="737" y="102.5" class="st6" width="125" height="49.5"/>
	<text transform="matrix(1 0 0 1 737 108.8901)"><tspan x="0" y="0" class="st9 st10">Always remember when to </tspan><tspan x="0" y="10.8" class="st9 st10">replace your filter. Have your </tspan><tspan x="0" y="21.6" class="st9 st10">filters delivered when they need </tspan><tspan x="0" y="32.4" class="st9 st10">to be replaced </tspan></text>
</g>
<g>
	<rect x="339.5" y="101" class="st6" width="90.5" height="17.5"/>
	<text transform="matrix(1 0 0 1 339.5 112.0737)" class="st7 st8">Light Bulbs</text>
	<rect x="334" y="118.5" class="st6" width="116.5" height="34.5"/>
	<text transform="matrix(1 0 0 1 334 124.8901)"><tspan x="0" y="0" class="st9 st10">Make sure you have enough </tspan><tspan x="0" y="10.8" class="st9 st10">light bulbs on hand. You never </tspan><tspan x="0" y="21.6" class="st9 st10">know when you’ll run out. </tspan></text>
</g>
<g>
	<rect x="270.5" y="239" class="st6" width="90.5" height="17.5"/>
	<text transform="matrix(1 0 0 1 270.5 250.0737)" class="st7 st8">Lawn Fertilizer</text>
	<rect x="265" y="256.5" class="st6" width="116.5" height="34.5"/>
	<text transform="matrix(1 0 0 1 265 262.8901)"><tspan x="0" y="0" class="st9 st10">A perfect green lawn requires </tspan><tspan x="0" y="10.8" class="st9 st10">the right fertilizer at the right </tspan><tspan x="0" y="21.6" class="st9 st10">time. Never forget again! </tspan></text>
</g>
<rect x="503" y="115.7" class="st2" width="15.2" height="35.6"/>
<g>
	<polygon class="st11" points="522.4,216.6 522.4,214 402.2,208.6 402.2,211.2 	"/>
</g>
<circle class="st11" cx="393.8" cy="193.3" r="35.4"/>
<g>
	<polygon class="st11" points="712.1,243.6 712.4,241.3 821.2,248 820.9,250.3 	"/>
</g>
<circle class="st11" cx="842.3" cy="232.5" r="35.4"/>
<g>
	<g>
		
			<rect x="595.9" y="118.4" transform="matrix(0.829 -0.5592 0.5592 0.829 42.2212 376.7113)" class="st12" width="82.5" height="1.7"/>
	</g>
</g>
<ellipse transform="matrix(0.9625 -0.2713 0.2713 0.9625 -0.9879 192.0738)" class="st12" cx="694.2" cy="99.6" rx="35.4" ry="35.4"/>
<g>
	<path class="st3" d="M841.3,223.8c0-3.3-6.2-11.5-6.6-12.1c0,0,0,0,0,0s-0.1,0.1-0.2,0.2c-1.1,1.4-6.5,8.8-6.5,11.9
		c0,1.5,0.5,2.8,1.4,3.9c0.2,0.2,0.4,0.5,0.7,0.7c0.6,0.5,1.3,0.9,2.1,1.2c0.8,0.3,1.6,0.4,2.5,0.4l0,0h0
		C838.3,230,841.3,227.2,841.3,223.8z"/>
	<path class="st3" d="M847.9,220.8C847.9,220.8,847.9,220.8,847.9,220.8c0,0-0.1,0-0.1,0.1c-1,1.4-8.6,11.6-8.6,15.8
		c0,1.9,0.7,3.7,1.9,5.1c0.3,0.3,0.6,0.6,0.9,0.9c1.6,1.3,3.6,2.2,5.9,2.2c4.8,0,8.7-3.6,8.7-8.1
		C856.7,232.3,848.3,221.3,847.9,220.8z"/>
</g>
<g>
	<g>
		
			<rect x="367.1" y="343.6" transform="matrix(0.9138 -0.4061 0.4061 0.9138 -124.5791 182.5889)" class="st13" width="1.7" height="82.5"/>
	</g>
</g>
<ellipse transform="matrix(0.9625 -0.2713 0.2713 0.9625 -76.0618 107.6935)" class="st13" cx="351.5" cy="328.9" rx="35.4" ry="35.4"/>
<g>
	<path class="st3" d="M406.8,181.3c-2.3-4.1-7-7-12.6-7c-7.7,0-13.9,5.5-13.9,12.3c0,4.2,2.4,7.9,6,10.2v3.4c0,0.4,0.1,0.8,0.3,1.2
		c0.4,0.8,1.3,1.4,2.3,1.4h10.6c1.4,0,2.6-1.2,2.6-2.6v-3.4c3.6-2.2,6-5.9,6-10.2C408.1,184.7,407.6,182.9,406.8,181.3z"/>
	<path class="st3" d="M400.1,203.8h-11.7c-0.4,0-0.8,0.3-0.8,0.7v0.8c0,0.4,0.4,0.7,0.8,0.7h11.7c0.4,0,0.8-0.3,0.8-0.7v-0.8
		C400.8,204.1,400.5,203.8,400.1,203.8z"/>
	<path class="st3" d="M399.4,206.9h-10.5c-0.4,0-0.7,0.3-0.7,0.7v0.8c0,0.4,0.3,0.7,0.7,0.7h10.5c0.4,0,0.7-0.3,0.7-0.7v-0.8
		C400.2,207.2,399.8,206.9,399.4,206.9z"/>
	<path class="st3" d="M398.2,210h-8c-0.5,0-0.9,0.8-0.9,1.8c0,0.5,0.1,0.9,0.2,1.2c0,0,0,0,0,0c0.1,0.3,0.7,1.4,4.6,1.4
		c3.7,0,4.5-1.2,4.6-1.4c0,0,0,0,0-0.1c0.2-0.3,0.2-0.7,0.2-1.2C399.1,210.8,398.7,210,398.2,210z"/>
</g>
<path class="st3" d="M350.4,343.5v0.2c0,0.5,0.4,0.9,1,0.9h0.4c0.5,0,1-0.4,1-0.9v-0.2c1.4,1,3.7,1,6.2,1c4.3,0,8.4-2.5,8.8-5.8
	c0.6-4.4-1.4-4.5-3.1-4.3c-4,0.5-7.1,6.6-12,7.5v-12.7c0.1,0,0.2,0,0.3,0c0.3,0,0.6-0.1,0.9-0.1c0.1,0,0.2,0,0.3-0.1
	c0.3-0.1,0.6-0.1,1-0.2c0,0,0.1,0,0.1,0c1.1-0.3,2.2-0.8,3.1-1.3c0.1-0.1,0.2-0.2,0.4-0.2c0.1-0.1,0.2-0.1,0.3-0.2
	c3-2,4.9-5.2,4.9-8.8c0-0.6-0.1-1.2-0.2-1.8c-0.4-1.6-1-2.9-1.6-3.8c-0.7-1-1.6-1.6-2.5-1.6c-1.8,0-3.3,2.3-4.2,5.7
	c-0.8-3.4-2.4-5.7-4.2-5.7c-1.8,0-3.3,2.3-4.2,5.7c-0.8-3.4-2.4-5.7-4.2-5.7c-1.6,0-3.1,2-4,5c-0.2,0.7-0.3,1.5-0.3,2.2
	c0,3.5,1.9,6.6,4.8,8.7c0.4,0.3,0.8,0.5,1.2,0.8c1.6,0.9,3.4,1.4,5.4,1.6V342c-5-0.9-8.1-7-12-7.5c-0.3,0-0.6-0.1-1,0
	c-0.9,0.1-1.8,0.4-2.1,1.8c-0.1,0.6-0.2,1.5,0,2.5c0.1,0.8,0.4,1.6,0.9,2.2c0.6,0.8,1.4,1.5,2.4,2.1c1.6,0.9,3.5,1.5,5.6,1.5
	C346.7,344.6,348.9,344.6,350.4,343.5z"/>
<g>
	<g>
		<path class="st3" d="M704.8,84.2L704.8,84.2L704.8,84.2l-17-5.1l-9.9,1.6v35.2l9.9,1.6l17-5.4L704.8,84.2z M679,81.6l5.5,0.8
			l-5.5,0.9V81.6z M679,84.5l5.5,0.8l-5.5,0.9V84.5z M679,87.4l5.5,0.8L679,89V87.4z M679,90.2l5.5,0.8l-5.5,0.9V90.2z M679,93.1
			l5.5,0.8l-5.5,0.9V93.1z M679,95.9l5.5,0.8l-5.5,0.8V95.9z M679,98.8l5.5,0.8l-5.5,0.8V98.8z M679,101.7l5.5,0.9l-5.5,0.8V101.7z
			 M679,104.5l5.5,0.9l-5.5,0.8V104.5z M679,107.4l5.5,0.9l-5.5,0.8V107.4z M679,110.2l5.5,0.9l-5.5,0.8V110.2z M679,113.1l5.5,0.9
			l-5.5,0.8V113.1z M687.3,116.4l-5.9-1l5.9-0.8V116.4z M687.3,113.5l-5.9-1l5.9-0.8V113.5z M687.3,110.6l-5.9-0.9l5.9-0.8V110.6z
			 M687.3,107.7l-5.9-0.9l5.9-0.9V107.7z M687.3,104.9l-5.9-0.9l5.9-0.9V104.9z M687.3,102l-5.9-0.9l5.9-0.9V102z M687.3,99.1
			l-5.9-0.9l5.9-0.9V99.1z M687.3,96.2l-5.9-0.9l5.9-0.9V96.2z M687.3,93.4l-5.9-0.9l5.9-0.9V93.4z M687.3,90.5l-5.9-0.9l5.9-0.9
			V90.5z M687.3,87.6l-5.9-0.8l5.9-1V87.6z M687.3,84.7l-5.9-0.8l5.9-1V84.7z M687.3,81.8l-5.9-0.8l5.9-1V81.8z M688.4,80.1
			l15.7,4.5v1.4l-15.7-4V80.1z M688.4,83l15.7,3.8l0,1.4l-15.7-3.3V83z M688.4,85.8l15.7,3v1.4l-15.7-2.6V85.8z M688.4,88.7
			l15.7,2.3l0,1.4l-15.7-1.8V88.7z M688.4,91.5l15.7,1.6l0,1.4l-15.7-1.1V91.5z M688.4,94.4l15.7,0.9l0,1.4l-15.7-0.4V94.4z
			 M688.4,97.2l15.7,0.1l0,1.4l-15.7,0.4V97.2z M688.4,100.1l15.7-0.6l0,1.4l-15.7,1.1V100.1z M688.4,102.9l15.7-1.3l0,1.4
			l-15.7,1.8V102.9z M688.4,105.8l15.7-2.1l0,1.4l-15.7,2.5V105.8z M688.4,108.7l15.7-2.8l0,1.4l-15.7,3.3V108.7z M688.4,111.5
			l15.7-3.5l0,1.4l-15.7,4V111.5z M688.4,116.3v-1.9l15.7-4.2l0,1.4L688.4,116.3z"/>
	</g>
	<g>
		<g>
			<path class="st3" d="M708.2,111.4c-0.9,0-1.8-0.7-1.8-2.2v-4.8l-9.1,0c-1.8,0-3.2-1.4-3.2-3.2v-6c0-1.8,1.4-3.2,3.2-3.2h9.1v-4.8
				c0-1.5,0.9-2.2,1.8-2.2c0.6,0,1.1,0.3,1.7,0.8l10.2,10.2c0.6,0.6,0.9,1.4,0.9,2.3c0,0.9-0.3,1.7-0.9,2.3l-10.2,10.2
				C709.3,111.2,708.7,111.4,708.2,111.4L708.2,111.4z"/>
		</g>
		<g>
			<path class="st3" d="M719.2,96.8L709,86.6c-0.8-0.8-1.5-0.5-1.5,0.6v5.9h-10.3c-1.1,0-2.1,0.9-2.1,2.1v6c0,1.1,0.9,2.1,2.1,2.1
				l10.3,0v5.9c0,1.1,0.7,1.4,1.5,0.6l10.2-10.2C720,98.9,720,97.6,719.2,96.8z"/>
		</g>
		<g>
			<polygon class="st14" points="710,105.5 710,103.3 710,100.9 707.5,100.9 697.7,100.9 697.7,95.6 707.5,95.6 710,95.6 710,93.2 
				710,91 717.3,98.2 			"/>
		</g>
	</g>
</g>
</svg>
